# xmcd
#
# Track frame offsets:
#	150
#	16925
#	21964
#	42297
#	55573
#	78563
#	127106
#	140127
#	154730
#	162300
#	176932
#	200325
#	218165
#
# Disc length: 3129 seconds
#
# Revision: 0
# Processed by: cddbd v1.5.2PL0 Copyright (c) Steve Scherf et al.
# Submitted via: EasyCDDAExtractor 12.0.1.1
#
DISCID=b60c370d
DTITLE=Gine Lenee - From The Heart
DYEAR=2003
DGENRE=Pop
TTITLE0=Special To Me (For Alice)
TTITLE1=Coming Home
TTITLE2=Keeper Of My Storm
TTITLE3=After The Rain
TTITLE4=Inspired
TTITLE5=Remembering
TTITLE6=Before You And I
TTITLE7=Gift For My Children (Lullabies For Jaci and Anna)
TTITLE8=Days Gone By
TTITLE9=The Reasons Why
TTITLE10=Flowers In Spring (for Angel Joelle)
TTITLE11=Once In A Lifetime
TTITLE12=If I Could Give To You
EXTD=
EXTT0=
EXTT1=
EXTT2=
EXTT3=
EXTT4=
EXTT5=
EXTT6=
EXTT7=
EXTT8=
EXTT9=
EXTT10=
EXTT11=
EXTT12=
PLAYORDER=
